{"title":"Ice Age Collision Course - 2016 - Hindi - CAM - x264 - AAC - Mak","uid":15333683,"size":774745788,"categoryP":"video","categoryS":"movies","magnet":"?xt=urn:btih:01719da7a3303743daefaf0ad769133a72d04e63&amp;dn=Ice+Age+Collision+Course+-+2016+-+Hindi+-+CAM+-+x264+-+AAC+-+Mak&amp;tr=udp%3A%2F%2Ftracker.leechers-paradise.org%3A6969&amp;tr=udp%3A%2F%2Fzer0day.ch%3A1337&amp;tr=udp%3A%2F%2Fopen.demonii.com%3A1337&amp;tr=udp%3A%2F%2Ftracker.coppersurfer.tk%3A6969&amp;tr=udp%3A%2F%2Fexodus.desync.com%3A6969","seeders":4,"leechers":3,"uploader":"makintos13","files":1,"time":1468763278,"description":"Ice Age Collision Course - 2016 - Hindi - CAM - x264 - AAC - Makintos13\r\n\r\nScreens\r\n \nhttps://imgmak.com/Td2\r\n \nhttps://imgmak.com/TdF\r\n \nhttps://imgmak.com/Tdi\r\n \nhttps://imgmak.com/Tdj\r\n \nhttps://imgmak.com/Tdw\r\n \nhttps://imgmak.com/TdJ\r\n \nhttps://imgmak.com/Tdd\r\n \nhttps://imgmak.com/Tds\r\n \nhttps://imgmak.com/Td4\r\n\r\nFormat : Matroska\r\nFormat version : Version 4 / Version 2\r\nFile size : 739 MiB\r\nDuration : 1h 27mn\r\n\r\nVideo\r\nID : 2\r\nFormat : AVC\r\nFormat/Info : Advanced Video Codec\r\nFormat profile :   \r\nFormat settings, CABAC : Yes\r\nFormat settings, ReFrames : 4 frames\r\nCodec ID : V_MPEG4/ISO/AVC\r\nDuration : 1h 27mn\r\nBit rate : 1 120 Kbps\r\nWidth : 640 pixels\r\nHeight : 256 pixels\r\nDisplay aspect ratio : 2.500\r\nFrame rate mode : Constant\r\nFrame rate : 29.970 (30000/1001) fps\r\nColor space : YUV\r\nChroma subsampling : 4:2:0\r\nBit depth : 8 bits\r\nScan type : Progressive\r\nBits/(Pixel*Frame) : 0.228\r\nStream size : 697 MiB (94%)\r\nDefault : Yes\r\nForced : No\r\n\r\nAudio\r\nID : 1\r\nFormat : AAC\r\nFormat/Info : Advanced Audio Codec\r\nFormat profile : LC\r\nCodec ID : A_AAC\r\nDuration : 1h 27mn\r\nBit rate : 64.2 Kbps\r\nChannel(s) : 2 channels\r\nChannel positions : Front: L R\r\nSampling rate : 48.0 KHz\r\nFrame rate : 46.875 fps (1024 spf)\r\nCompression mode : Lossy\r\nDelay relative to video : 46ms\r\nSource : DH (thanks)\r\nStream size : 40.0 MiB (5%)\r\nTitle : Stereo\r\nLanguage : Hindi\r\nDefault : Yes\r\nForced : No","torrent":{"xt":"urn:btih:01719da7a3303743daefaf0ad769133a72d04e63","amp;dn":"Ice+Age+Collision+Course+-+2016+-+Hindi+-+CAM+-+x264+-+AAC+-+Mak","amp;tr":["udp%3A%2F%2Ftracker.leechers-paradise.org%3A6969","udp%3A%2F%2Fzer0day.ch%3A1337","udp%3A%2F%2Fopen.demonii.com%3A1337","udp%3A%2F%2Ftracker.coppersurfer.tk%3A6969","udp%3A%2F%2Fexodus.desync.com%3A6969"],"infoHash":"01719da7a3303743daefaf0ad769133a72d04e63","infoHashBuffer":{"type":"Buffer","data":[1,113,157,167,163,48,55,67,218,239,175,10,215,105,19,58,114,208,78,99]},"announce":[],"urlList":[]}}